<?xml version="1.0" encoding="UTF-8"?><?xml version="1.0" encoding="UTF-8"?>

<svg width="24px" height="24px" viewBox="0 0 24 24" version="1.1" xmlns="http://www.w3.org/2000/svg"><svg width="45" height="45" viewBox="0 0 45 45" version="1.1" xmlns="http://www.w3.org/2000/svg">

    <g stroke="none" fill="currentColor">  <g>

        <path d="M12,4C10.3431458,4 9,5.34314575 9,7C9,8.65685425 10.3431458,10 12,10C13.6568542,10 15,8.65685425 15,7C15,5.34314575 13.6568542,4 12,4Z M7,18L8,14L16,14L17,18L7,18Z M12,11C9.23857625,11 7,8.76142375 7,6C7,3.23857625 9.23857625,1 12,1C14.7614237,1 17,3.23857625 17,6C17,8.76142375 14.7614237,11 12,11Z M5,20L6.5,13L17.5,13L19,20L5,20Z"/>    <path d="M22.5 9c-2.21 0-4 1.79-4 4 0 .89.29 1.71.78 2.38C17.33 16.5 16 18.59 16 21c0 2.03.94 3.84 2.41 5.03-3 1.06-7.41 5.55-7.41 13.47h23c0-7.92-4.41-12.41-7.41-13.47 1.47-1.19 2.41-3 2.41-5.03 0-2.41-1.33-4.5-3.28-5.62.49-.67.78-1.49.78-2.38 0-2.21-1.79-4-4-4z" style="fill:currentColor;stroke:currentColor;stroke-width:1.5;stroke-linecap:round"/>

    </g>  </g>

</svg></svg>